<?xml version="1.0" encoding="UTF-8"?>
<svg width="64px" height="64px" viewBox="0 0 64 64" version="1.1" xmlns="http://www.w3.org/2000/svg" xmlns:xlink="http://www.w3.org/1999/xlink">
    <!-- Generator: Sketch 59 (86127) - https://sketch.com -->
    <title>Artboard Copy 11</title>
    <desc>Created with Sketch.</desc>
    <defs>
        <path d="M58.8385432,0 C61.6845705,0 64,2.31542953 64,5.16145682 L64,58.8385432 C64,61.6845705 61.6845705,64 58.8385432,64 L5.16145682,64 C2.31542953,64 0,61.6845705 0,58.8385432 L0,5.16145682 C0,2.31542953 2.31542953,0 5.16145682,0 L58.8385432,0 Z M61.9354173,58.8385432 L61.9354173,5.16145682 C61.9354173,3.4540469 60.5459531,2.06458273 58.8385432,2.06458273 L5.16145682,2.06458273 C3.4540469,2.06458273 2.06458273,3.4540469 2.06458273,5.16145682 L2.06458273,58.8385432 C2.06458273,60.5459531 3.4540469,61.9354173 5.16145682,61.9354173 L58.8385432,61.9354173 C60.5459531,61.9354173 61.9354173,60.5459531 61.9354173,58.8385432 Z M57.8072841,5.16042453 C58.3781412,5.16042453 58.8395755,5.62185877 58.8395755,6.19271589 L58.8395755,57.8072841 C58.8395755,58.3781412 58.3781412,58.8395755 57.8072841,58.8395755 L6.19271589,58.8395755 C5.62185877,58.8395755 5.16042453,58.3781412 5.16042453,57.8072841 L5.16042453,6.19271589 C5.16042453,5.62185877 5.62185877,5.16042453 6.19271589,5.16042453 L57.8072841,5.16042453 Z M56.7749927,56.7749927 L56.7749927,7.22500726 L7.22500726,7.22500726 L7.22500726,56.7749927 L56.7749927,56.7749927 Z M32,21.6812155 C39.9692893,21.6812155 46.4520791,28.1640053 46.4520791,36.1322623 C46.4520791,44.1015517 39.9692893,50.5853737 32,50.5853737 C24.0307107,50.5853737 17.5479209,44.1015517 17.5479209,36.1322623 C17.5479209,28.1640053 24.0307107,21.6812155 32,21.6812155 Z M32,48.520791 C38.830672,48.520791 44.3874964,42.9629343 44.3874964,36.1322623 C44.3874964,29.3026227 38.830672,23.7457983 32,23.7457983 C25.169328,23.7457983 19.6125036,29.3026227 19.6125036,36.1322623 C19.6125036,42.9629343 25.169328,48.520791 32,48.520791 Z M32,24.768799 C33.7074099,24.768799 35.0968741,26.1582632 35.0968741,27.8656731 C35.0968741,29.573083 33.7074099,30.9625472 32,30.9625472 C30.2925901,30.9625472 28.9031259,29.573083 28.9031259,27.8656731 C28.9031259,26.1582632 30.2925901,24.768799 32,24.768799 Z M32,28.8979645 C32.5698248,28.8979645 33.0322914,28.4354979 33.0322914,27.8656731 C33.0322914,27.2958483 32.5698248,26.8333817 32,26.8333817 C31.4301752,26.8333817 30.9677086,27.2958483 30.9677086,27.8656731 C30.9677086,28.4354979 31.4301752,28.8979645 32,28.8979645 Z M17.3961741,21.537727 C17.4405626,21.4923062 17.4973386,21.4716604 17.5479209,21.4375948 C21.2497177,17.7967031 26.31001,15.5390819 31.8926417,15.5091455 C31.9308365,15.5050163 31.9607729,15.4874673 32,15.4874673 C32.0392271,15.4874673 32.0712281,15.5050163 32.1073583,15.5091455 C37.6920546,15.5380496 42.7544114,17.7977354 46.4562083,21.4396593 C46.504726,21.473725 46.561502,21.4954031 46.6048582,21.5387593 C46.650279,21.5831478 46.6719572,21.6399239 46.7060228,21.6905061 C50.33143,25.3830124 52.5828575,30.4236911 52.6220846,35.9867092 C52.6303429,36.0383238 52.6530533,36.0868415 52.6530533,36.1425852 C52.6530533,36.7134424 52.1916191,37.1748766 51.620762,37.1748766 L48.5166618,37.1748766 C47.9458047,37.1748766 47.4843705,36.7134424 47.4843705,36.1425852 C47.4843705,36.1405207 47.4854028,36.1384561 47.4854028,36.1363915 C47.4854028,36.1353592 47.4843705,36.1332946 47.4843705,36.13123 C47.4843705,27.5941805 40.5380819,20.6478919 32,20.6478919 C23.4619181,20.6478919 16.5156295,27.5931482 16.5156295,36.13123 C16.5156295,36.1353592 16.513565,36.1374238 16.513565,36.141553 C16.513565,36.7124101 16.0521307,37.1738443 15.4812736,37.1738443 L12.3782057,37.1738443 C11.8073486,37.1738443 11.3459144,36.7124101 11.3459144,36.141553 C11.3459144,36.0837446 11.3696571,36.0341947 11.3789477,35.9784509 C11.4202394,30.4205942 13.66857,25.3830124 17.2919126,21.693603 C17.3290751,21.6419885 17.349721,21.5841801 17.3961741,21.537727 Z M14.5026614,35.1102939 C14.7597019,30.6920868 16.6364076,26.7043453 19.5743088,23.7571535 C19.3750766,23.9439982 19.1231975,24.0430982 18.8682216,24.0430982 C18.6235685,24.0430982 18.3830446,23.9470951 18.1889738,23.7736701 C15.4575309,26.8209942 13.7263783,30.7643472 13.487919,35.1102939 L14.5026614,35.1102939 L14.5026614,35.1102939 Z M19.6145682,23.7137972 C22.7744121,20.5622117 27.1265525,18.6070518 31.9287719,18.5884706 C31.4105616,18.5492435 31.0048711,18.1414884 30.9780315,17.6201813 C26.6279557,17.8596729 22.6794413,19.5949547 19.6310849,22.3294945 C19.9830962,22.7269267 19.9810316,23.3235911 19.6145682,23.7137972 Z M32.0712281,18.5884706 C36.8703507,18.6070518 41.2193942,20.5601471 44.379238,23.7086358 C44.0179361,23.3173973 44.0169038,22.7248621 44.3699474,22.3294945 C41.3205587,19.5939224 37.3720443,17.8586406 33.0219685,17.6201813 C32.9951289,18.1414884 32.5894384,18.5502758 32.0712281,18.5884706 Z M44.4329172,23.7633472 C47.3666892,26.710539 49.2413304,30.696216 49.4973386,35.1102939 L50.5131133,35.1102939 C50.2736217,30.7643472 48.5435014,26.8209942 45.8130907,23.7736701 C45.6179877,23.9481274 45.3774638,24.0441305 45.1317784,24.0441305 C44.8798994,24.0441305 44.6300848,23.9470951 44.4329172,23.7633472 Z M10.3673022,11.3758508 C9.79644505,11.3758508 9.32984935,10.9144166 9.32984935,10.3435595 C9.32984935,9.77270235 9.78612213,9.31126811 10.355947,9.31126811 L10.3673022,9.31126811 C10.937127,9.31126811 11.3995935,9.77270235 11.3995935,10.3435595 C11.3995935,10.9144166 10.937127,11.3758508 10.3673022,11.3758508 Z M10.3673022,54.727959 C9.79644505,54.727959 9.32984935,54.2665247 9.32984935,53.6956676 C9.32984935,53.1248105 9.78612213,52.6633762 10.355947,52.6633762 L10.3673022,52.6633762 C10.937127,52.6633762 11.3995935,53.1248105 11.3995935,53.6956676 C11.3995935,54.2665247 10.937127,54.727959 10.3673022,54.727959 Z M53.7256041,11.3758508 C53.1547469,11.3758508 52.6881512,10.9144166 52.6881512,10.3435595 C52.6881512,9.77270235 53.144424,9.31126811 53.7142488,9.31126811 L53.7256041,9.31126811 C54.2954289,9.31126811 54.7578954,9.77270235 54.7578954,10.3435595 C54.7578954,10.9144166 54.2954289,11.3758508 53.7256041,11.3758508 Z M53.7256041,54.727959 C53.1547469,54.727959 52.6881512,54.2665247 52.6881512,53.6956676 C52.6881512,53.1248105 53.144424,52.6633762 53.7142488,52.6633762 L53.7256041,52.6633762 C54.2954289,52.6633762 54.7578954,53.1248105 54.7578954,53.6956676 C54.7578954,54.2665247 54.2954289,54.727959 53.7256041,54.727959 Z" id="path-1"></path>
    </defs>
    <g id="Artboard-Copy-11" stroke="none" stroke-width="1" fill="none" fill-rule="evenodd">
        <g id="Rectangle-+-Rectangle-Copy-2-+-Rectangle-Copy-8-+-Rectangle-Copy-9-+-Oval-Mask">
            <mask id="mask-2" fill="white">
                <use xlink:href="#path-1"></use>
            </mask>
            <use id="Mask" fill="#014E71" fill-rule="nonzero" xlink:href="#path-1"></use>
            <rect id="Rectangle" fill="#FA8603" fill-rule="nonzero" mask="url(#mask-2)" x="8.53333333" y="8.53333333" width="4.26666667" height="4.26666667" rx="2.13333333"></rect>
            <rect id="Rectangle-Copy-2" fill="#FA8603" fill-rule="nonzero" mask="url(#mask-2)" x="51.2" y="8.53333333" width="4.26666667" height="4.26666667" rx="2.13333333"></rect>
            <rect id="Rectangle-Copy-8" fill="#FA8603" fill-rule="nonzero" mask="url(#mask-2)" x="51.2" y="51.2" width="4.26666667" height="4.26666667" rx="2.13333333"></rect>
            <rect id="Rectangle-Copy-9" fill="#FA8603" fill-rule="nonzero" mask="url(#mask-2)" x="8.53333333" y="51.2" width="4.26666667" height="4.26666667" rx="2.13333333"></rect>
            <ellipse id="Oval" fill="#FA8603" fill-rule="nonzero" mask="url(#mask-2)" cx="32" cy="27.2" rx="4.26666667" ry="3.73333333"></ellipse>
        </g>
        <rect id="Rectangle" x="0" y="0" width="64" height="64"></rect>
    </g>
</svg>