<?xml version="1.0" encoding="UTF-8"?>
<svg width="64px" height="64px" viewBox="0 0 64 64" version="1.1" xmlns="http://www.w3.org/2000/svg" xmlns:xlink="http://www.w3.org/1999/xlink">
    <!-- Generator: Sketch 59 (86127) - https://sketch.com -->
    <title>Artboard Copy 12</title>
    <desc>Created with Sketch.</desc>
    <defs>
        <path d="M54.6782933,12.0241485 C56.2894473,12.0241485 57.6,13.3437761 57.6,14.9657792 L57.6,49.0343458 C57.6,50.6562239 56.2893232,51.9758515 54.6781691,51.9758515 L54.6141004,51.9758515 L54.6141004,62.0604962 C54.6141004,63.1299983 53.7499179,64 52.6875694,64 L4.91243064,64 C3.85008213,64 2.98589961,63.1299983 2.98589961,62.0604962 L2.98589961,51.9758515 L2.9218309,51.9758515 C1.31080099,51.9758515 0,50.6563489 0,49.0343458 L0,14.9656542 C0,13.3437761 1.31067682,12.0241485 2.9218309,12.0241485 L2.98589961,12.0241485 L2.98589961,1.93950379 C2.98589961,0.870001699 3.85008213,0 4.91243064,0 L52.6876935,0 C53.750042,0 54.6142246,0.870001699 54.6142246,1.93950379 L54.6142246,12.0241485 L54.6782933,12.0241485 Z M29.7313553,1.87500366 L29.7313553,12.0241485 L52.7517622,12.0241485 L52.7517622,1.93950379 C52.7517622,1.90387872 52.7230803,1.87500366 52.6876935,1.87500366 L29.7313553,1.87500366 Z M4.8484861,1.93950379 L4.8484861,12.0241485 L27.868893,12.0241485 L27.868893,1.87500366 L4.91255481,1.87500366 C4.87716802,1.87500366 4.8484861,1.90387872 4.8484861,1.93950379 Z M52.7517622,62.0606212 L52.7517622,51.9759765 L29.7313553,51.9759765 L29.7313553,62.1251213 L52.6876935,62.1251213 C52.7230803,62.1251213 52.7517622,62.0962463 52.7517622,62.0606212 Z M55.7376619,24.048422 L55.7376619,14.9656542 C55.7376619,14.3776531 55.2623614,13.8991521 54.6781691,13.8991521 L2.92170674,13.8991521 C2.33763855,13.8991521 1.86233817,14.3775281 1.86233817,14.9656542 L1.86233817,24.048422 L46.715646,24.048422 C47.2299339,24.048422 47.6468771,24.4681728 47.6468771,24.9859238 C47.6468771,25.5036748 47.2299339,25.9234256 46.715646,25.9234256 L1.86233817,25.9234256 L1.86233817,49.0344708 C1.86233817,49.6224719 2.33776272,50.1009729 2.92195507,50.1009729 L5.908103,50.1009729 C6.42239094,50.1009729 6.83933417,50.5207237 6.83933417,51.0384747 C6.83933417,51.5562257 6.42239094,51.9759765 5.908103,51.9759765 L4.84836194,51.9759765 L4.84836194,62.0606212 C4.84836194,62.0962463 4.87704386,62.1251213 4.91243064,62.1251213 L27.868893,62.1251213 L27.868893,51.9759765 L9.88868166,51.9759765 C9.37439373,51.9759765 8.9574505,51.5562257 8.9574505,51.0384747 C8.9574505,50.5207237 9.37439373,50.1009729 9.88868166,50.1009729 L54.6782933,50.1009729 C55.2624856,50.1009729 55.7376619,49.6224719 55.7376619,49.0343458 L55.7376619,25.9234256 L50.6973421,25.9234256 C50.1830542,25.9234256 49.7661109,25.5036748 49.7661109,24.9859238 C49.7661109,24.4681728 50.1830542,24.048422 50.6973421,24.048422 L55.7376619,24.048422 Z M26.7454557,37.3174479 C27.3382154,37.6485735 27.7407556,38.2846998 27.7408798,39.0142012 L27.7408798,41.0182051 C27.7408798,42.0877072 26.8766972,42.9577089 25.8143487,42.9577089 L18.8471255,42.9577089 C17.784777,42.9577089 16.9205944,42.0877072 16.9205944,41.0182051 L16.9205944,39.0142012 C16.9205944,38.2846998 17.3231346,37.6485735 17.9158943,37.3174479 L17.9158943,32.0000625 C17.9158943,30.3781843 19.2265711,29.0585568 20.8377252,29.0585568 L23.8236248,29.0585568 C25.4346547,29.0585568 26.7454557,30.3780593 26.7454557,32.0000625 L26.7454557,37.3174479 Z M19.7781083,32.0000625 L19.7781083,37.0746974 L24.8828692,37.0746974 L24.8828692,32.0000625 C24.8828692,31.4120614 24.407693,30.9335604 23.8235007,30.9335604 L20.837601,30.9335604 C20.2535329,30.9335604 19.7782325,31.4119364 19.7781083,32.0000625 Z M25.8782933,41.0182051 L25.8782933,39.0142012 C25.8782933,38.9785761 25.8496113,38.9497011 25.8142246,38.9497011 L18.8470013,38.9497011 C18.8116145,38.9497011 18.7829326,38.9785761 18.7829326,39.0142012 L18.7829326,41.0182051 C18.7829326,41.0538302 18.8116145,41.0827052 18.8470013,41.0827052 L25.8142246,41.0827052 C25.8496113,41.0827052 25.8782933,41.0538302 25.8782933,41.0182051 Z M39.6844782,37.3174479 C40.277362,37.6485735 40.6797781,38.2846998 40.6799022,39.0142012 L40.6799022,41.0182051 C40.6799022,42.0877072 39.8157197,42.9577089 38.7533712,42.9577089 L31.7861479,42.9577089 C30.7237994,42.9577089 29.8596169,42.0877072 29.8596169,41.0182051 L29.8596169,39.0142012 C29.8596169,38.2846998 30.2621571,37.6485735 30.8549168,37.3174479 L30.8549168,32.0000625 C30.8549168,30.3781843 32.1655936,29.0585568 33.7767477,29.0585568 L36.7626473,29.0585568 C38.3736772,29.0585568 39.6844782,30.3780593 39.6844782,32.0000625 L39.6844782,37.3174479 Z M32.7172549,32.0000625 L32.7172549,37.0746974 L37.8220159,37.0746974 L37.8220159,32.0000625 C37.8220159,31.4120614 37.3468396,30.9335604 36.7626473,30.9335604 L33.7767477,30.9335604 C33.1925553,30.9335604 32.7172549,31.4119364 32.7172549,32.0000625 Z M38.8173157,41.0182051 L38.8173157,39.0142012 C38.8173157,38.9785761 38.7886338,38.9497011 38.753247,38.9497011 L31.7860238,38.9497011 C31.750637,38.9497011 31.7219551,38.9785761 31.7219551,39.0142012 L31.7219551,41.0182051 C31.7219551,41.0538302 31.750637,41.0827052 31.7860238,41.0827052 L38.753247,41.0827052 C38.7886338,41.0827052 38.8173157,41.0538302 38.8173157,41.0182051 Z M52.6236248,37.3174479 C53.2165087,37.6485735 53.6189247,38.2846998 53.6190489,39.0142012 L53.6190489,41.0182051 C53.6190489,42.0877072 52.7548663,42.9577089 51.6925178,42.9577089 L44.7252946,42.9577089 C43.6629461,42.9577089 42.7986394,42.0877072 42.7986394,41.0182051 L42.7986394,39.0142012 C42.7986394,38.2846998 43.2011796,37.6485735 43.7940634,37.3174479 L43.7940634,32.0000625 C43.7940634,30.3781843 45.1047402,29.0585568 46.7158943,29.0585568 L49.7017939,29.0585568 C51.3128238,29.0585568 52.6236248,30.3780593 52.6236248,32.0000625 L52.6236248,37.3174479 Z M45.6564016,32.0000625 L45.6564016,37.0746974 L50.7611625,37.0746974 L50.7611625,32.0000625 C50.7611625,31.4120614 50.2859863,30.9335604 49.7017939,30.9335604 L46.7158943,30.9335604 C46.131702,30.9335604 45.6564016,31.4119364 45.6564016,32.0000625 Z M51.7564624,41.0182051 L51.7564624,39.0142012 C51.7564624,38.9785761 51.7277804,38.9497011 51.6923937,38.9497011 L44.7251704,38.9497011 C44.6897836,38.9497011 44.6609775,38.9785761 44.6609775,39.0142012 L44.6609775,41.0182051 C44.6609775,41.0538302 44.6897836,41.0827052 44.7251704,41.0827052 L51.6923937,41.0827052 C51.7277804,41.0827052 51.7564624,41.0538302 51.7564624,41.0182051 Z M13.8063091,37.3174479 C14.3990688,37.6485735 14.801609,38.2846998 14.8017331,39.0142012 L14.8017331,41.0182051 C14.8017331,42.0877072 13.9374264,42.9577089 12.8750779,42.9577089 L5.90785468,42.9577089 C4.84550616,42.9577089 3.98132364,42.0877072 3.98132364,41.0182051 L3.98132364,39.0142012 C3.98132364,38.2846998 4.38386383,37.6485735 4.97662351,37.3174479 L4.97662351,32.0000625 C4.97662351,30.3781843 6.28730033,29.0585568 7.89845441,29.0585568 L10.8844782,29.0585568 C12.4955081,29.0585568 13.8063091,30.3780593 13.8063091,32.0000625 L13.8063091,37.3174479 Z M6.83908584,32.0000625 L6.83908584,37.0746974 L11.9437226,37.0746974 L11.9437226,32.0000625 C11.9437226,31.4120614 11.4685464,30.9335604 10.884354,30.9335604 L7.89845441,30.9335604 C7.31438623,30.9335604 6.83908584,31.4119364 6.83908584,32.0000625 Z M12.9392708,41.0182051 L12.9392708,39.0142012 C12.9392708,38.9785761 12.9104647,38.9497011 12.8750779,38.9497011 L5.90785468,38.9497011 C5.87246789,38.9497011 5.84378597,38.9785761 5.84378597,39.0142012 L5.84378597,41.0182051 C5.84378597,41.0538302 5.87246789,41.0827052 5.90785468,41.0827052 L12.8749538,41.0827052 C12.9103405,41.0827052 12.9391466,41.0538302 12.9391466,41.0182051 L12.9392708,41.0182051 Z M21.8329009,4.00800783 C23.444055,4.00800783 24.7547318,5.32763541 24.7547318,6.94951357 C24.7547318,8.57139174 23.4439308,9.89101932 21.8329009,9.89101932 C20.221871,9.89101932 18.91107,8.57139174 18.91107,6.94951357 C18.91107,5.32763541 20.2217468,4.00800783 21.8329009,4.00800783 Z M21.8329009,8.01614066 C22.4170933,8.01614066 22.8922695,7.53763972 22.8922695,6.94963857 C22.8922695,6.36163743 22.4169691,5.88313649 21.8329009,5.88313649 C21.2488327,5.88313649 20.7735323,6.36163743 20.7735323,6.94963857 C20.7735323,7.53763972 21.2487086,8.01614066 21.8329009,8.01614066 Z M10.884354,4.00800783 C12.4955081,4.00800783 13.8061849,5.32763541 13.8061849,6.94951357 C13.8061849,8.57139174 12.4953839,9.89101932 10.884354,9.89101932 C9.27332411,9.89101932 7.96252312,8.57139174 7.96252312,6.94951357 C7.96252312,5.32763541 9.27319994,4.00800783 10.884354,4.00800783 Z M10.884354,8.01614066 C11.4685464,8.01614066 11.9437226,7.53763972 11.9437226,6.94963857 C11.9437226,6.36163743 11.4684222,5.88313649 10.884354,5.88313649 C10.3002858,5.88313649 9.82498545,6.36163743 9.82498545,6.94963857 C9.82498545,7.53763972 10.3001617,8.01614066 10.884354,8.01614066 Z M46.7158943,4.00813283 C48.3269242,4.00813283 49.6377252,5.32776041 49.6377252,6.94963857 C49.6377252,8.57151674 48.3270484,9.89114432 46.7158943,9.89114432 C45.1047402,9.89114432 43.7940634,8.57151674 43.7940634,6.94963857 C43.7940634,5.32776041 45.1048644,4.00813283 46.7158943,4.00813283 Z M46.7158943,8.01601566 C47.2999625,8.01601566 47.7752629,7.53751472 47.7752629,6.94951357 C47.7752629,6.36151242 47.3000867,5.88301149 46.7158943,5.88301149 C46.131702,5.88301149 45.6565257,6.36151242 45.6565257,6.94951357 C45.6565257,7.53751472 46.1318261,8.01601566 46.7158943,8.01601566 Z M35.7673474,4.00813283 C37.3783773,4.00813283 38.6891783,5.32776041 38.6891783,6.94963857 C38.6891783,8.57151674 37.3785015,9.89114432 35.7673474,9.89114432 C34.1561933,9.89114432 32.8455165,8.57151674 32.8455165,6.94963857 C32.8455165,5.32776041 34.1563175,4.00813283 35.7673474,4.00813283 Z M35.7673474,8.01601566 C36.3514156,8.01601566 36.826716,7.53751472 36.826716,6.94951357 C36.826716,6.36151242 36.3515398,5.88301149 35.7673474,5.88301149 C35.1831551,5.88301149 34.7079788,6.36151242 34.7079788,6.94951357 C34.7079788,7.53751472 35.1832792,8.01601566 35.7673474,8.01601566 Z M35.7673474,54.1091057 C37.3783773,54.1091057 38.6891783,55.4287333 38.6891783,57.0506114 C38.6891783,58.6724896 37.3785015,59.9921172 35.7673474,59.9921172 C34.1561933,59.9921172 32.8455165,58.6724896 32.8455165,57.0506114 C32.8455165,55.4287333 34.1563175,54.1091057 35.7673474,54.1091057 Z M35.7673474,58.1169885 C36.3514156,58.1169885 36.826716,57.6384876 36.826716,57.0504864 C36.826716,56.4624853 36.3515398,55.9839843 35.7673474,55.9839843 C35.1831551,55.9839843 34.7079788,56.4624853 34.7079788,57.0504864 C34.7079788,57.6384876 35.1832792,58.1169885 35.7673474,58.1169885 Z M46.7158943,54.1091057 C48.3269242,54.1091057 49.6377252,55.4287333 49.6377252,57.0506114 C49.6377252,58.6724896 48.3270484,59.9921172 46.7158943,59.9921172 C45.1047402,59.9921172 43.7940634,58.6724896 43.7940634,57.0506114 C43.7940634,55.4287333 45.1048644,54.1091057 46.7158943,54.1091057 Z M46.7158943,58.1169885 C47.2999625,58.1169885 47.7752629,57.6384876 47.7752629,57.0504864 C47.7752629,56.4624853 47.3000867,55.9839843 46.7158943,55.9839843 C46.131702,55.9839843 45.6565257,56.4624853 45.6565257,57.0504864 C45.6565257,57.6384876 46.1318261,58.1169885 46.7158943,58.1169885 Z M10.884354,54.1089807 C12.4953839,54.1089807 13.8061849,55.4286083 13.8061849,57.0504864 C13.8061849,58.6723646 12.4953839,59.9919922 10.884354,59.9919922 C9.27332411,59.9919922 7.96252312,58.6724896 7.96252312,57.0504864 C7.96252312,55.4286083 9.27332411,54.1089807 10.884354,54.1089807 Z M10.884354,58.1169885 C11.4684222,58.1169885 11.9437226,57.6384876 11.9437226,57.0504864 C11.9437226,56.4624853 11.4685464,55.9839843 10.884354,55.9839843 C10.3002858,55.9839843 9.82498545,56.4624853 9.82498545,57.0504864 C9.82498545,57.6384876 10.3002858,58.1169885 10.884354,58.1169885 Z M21.8329009,54.1091057 C23.4439308,54.1091057 24.7547318,55.4287333 24.7547318,57.0506114 C24.7547318,58.6724896 23.444055,59.9921172 21.8329009,59.9921172 C20.221871,59.9921172 18.91107,58.6724896 18.91107,57.0506114 C18.91107,55.4287333 20.221871,54.1091057 21.8329009,54.1091057 Z M21.8329009,58.1169885 C22.4169691,58.1169885 22.8922695,57.6384876 22.8922695,57.0504864 C22.8922695,56.4624853 22.4170933,55.9839843 21.8329009,55.9839843 C21.2488327,55.9839843 20.7735323,56.4624853 20.7735323,57.0504864 C20.7735323,57.6384876 21.2488327,58.1169885 21.8329009,58.1169885 Z M11.8797781,19.0384122 C12.394066,19.0384122 12.8110092,19.458163 12.8110092,19.975914 C12.8110092,20.493665 12.394066,20.9134158 11.8797781,20.9134158 L6.90315455,20.9134158 C6.38886661,20.9134158 5.97192338,20.493665 5.97192338,19.975914 C5.97192338,19.458163 6.38886661,19.0384122 6.90315455,19.0384122 L11.8797781,19.0384122 Z M24.8189247,19.0384122 C25.3332126,19.0384122 25.7501559,19.458163 25.7501559,19.975914 C25.7501559,20.493665 25.3332126,20.9134158 24.8189247,20.9134158 L19.8423012,20.9134158 C19.3280132,20.9134158 18.91107,20.493665 18.91107,19.975914 C18.91107,19.458163 19.3280132,19.0384122 19.8423012,19.0384122 L24.8189247,19.0384122 Z M37.7579472,19.0384122 C38.2721109,19.0384122 38.6891783,19.458163 38.6891783,19.975914 C38.6891783,20.493665 38.2722351,20.9134158 37.7579472,20.9134158 L32.7813236,20.9134158 C32.2670357,20.9134158 31.8500925,20.493665 31.8500925,19.975914 C31.8500925,19.458163 32.2670357,19.0384122 32.7813236,19.0384122 L37.7579472,19.0384122 Z M50.6970938,19.0384122 C51.2113817,19.0384122 51.6283249,19.458163 51.6283249,19.975914 C51.6283249,20.493665 51.2113817,20.9134158 50.6970938,20.9134158 L45.7204703,20.9134158 C45.2061823,20.9134158 44.7892391,20.493665 44.7892391,19.975914 C44.7892391,19.458163 45.2061823,19.0384122 45.7204703,19.0384122 L50.6970938,19.0384122 Z" id="path-1"></path>
    </defs>
    <g id="Artboard-Copy-12" stroke="none" stroke-width="1" fill="none" fill-rule="evenodd">
        <g id="Rectangle" transform="translate(4.000000, 0.000000)">
            <mask id="mask-2" fill="white">
                <use xlink:href="#path-1"></use>
            </mask>
            <use id="Mask" fill="#014E71" fill-rule="nonzero" xlink:href="#path-1"></use>
            <rect fill="#FA8603" fill-rule="nonzero" mask="url(#mask-2)" x="2.13333333" y="27.7333333" width="53.3333333" height="17.0666667" rx="4.26666667"></rect>
        </g>
        <rect id="Rectangle" x="0" y="0" width="64" height="64"></rect>
    </g>
</svg>