<?xml version="1.0" encoding="UTF-8"?>
<svg width="64px" height="64px" viewBox="0 0 64 64" version="1.1" xmlns="http://www.w3.org/2000/svg" xmlns:xlink="http://www.w3.org/1999/xlink">
    <!-- Generator: Sketch 59 (86127) - https://sketch.com -->
    <title>7</title>
    <desc>Created with Sketch.</desc>
    <defs>
        <path d="M0,25.0027493 C0,33.7195701 4.51563233,41.8455386 11.8085306,46.3664084 L11.8085306,50.9492627 C11.8075496,50.9682579 11.7977394,50.9842539 11.7977394,51.0032492 C11.7977394,51.0222444 11.8075496,51.0372407 11.8085306,51.0562359 L11.8085306,53.0057486 L11.7967584,53.0057486 C11.2542546,53.0057486 10.815739,53.4526368 10.815739,54.0054986 C10.815739,54.5583604 11.2542546,55.0052487 11.7967584,55.0052487 L11.8085306,55.0052487 L11.8085306,56.007998 L11.7967584,56.007998 C11.2542546,56.007998 10.815739,56.4548863 10.815739,57.0077481 C10.815739,57.5606098 11.2542546,58.0074981 11.7967584,58.0074981 L12.3892941,58.0074981 L15.0311794,60.699825 C15.1214331,60.7928018 15.2303263,60.8657836 15.3509917,60.9167708 C15.4706761,60.9677581 15.5982086,60.9937516 15.7257411,60.9937516 L18.7992749,60.9937516 C19.2358285,62.7173207 20.7603327,64 22.5860098,64 L26.5100874,64 C28.3357646,64 29.8602687,62.7173207 30.2968224,60.9937516 L33.3840904,60.9937516 C33.5116229,60.9937516 33.6391555,60.9677581 33.7588398,60.9167708 C33.8795052,60.8657836 33.9883984,60.7928018 34.0786522,60.699825 L36.7205374,58.0074981 L37.3022819,58.0074981 C37.8447857,58.0074981 38.2833013,57.5606098 38.2833013,57.0077481 C38.2833013,56.4548863 37.8447857,56.007998 37.3022819,56.007998 L37.3013009,56.007998 L37.3013009,55.0052487 L37.3022819,55.0052487 C37.8447857,55.0052487 38.2833013,54.5583604 38.2833013,54.0054986 C38.2833013,53.4526368 37.8447857,53.0057486 37.3022819,53.0057486 L37.3013009,53.0057486 L37.3013009,46.3404149 C44.5686927,41.8145464 49.0666667,33.6975756 49.0666667,25.0027493 C49.0686287,11.216196 38.062572,0 24.5343144,0 C11.0060567,0 0,11.216196 0,25.0027493 Z M26.5110685,62.0004999 L22.5869908,62.0004999 C21.8620175,62.0004999 21.2341651,61.5926018 20.8937513,60.9937516 L28.2033269,60.9937516 C27.8638942,61.5926018 27.2360418,62.0004999 26.5110685,62.0004999 Z M32.9789294,58.9942514 L16.1328642,58.9942514 L15.164598,58.0074981 L33.9481766,58.0074981 L32.9789294,58.9942514 Z M35.3412241,56.007998 L13.7705694,56.007998 L13.7705694,55.0052487 L35.3402431,55.0052487 L35.3402431,56.007998 L35.3412241,56.007998 Z M13.7705694,53.0057486 L13.7705694,52.0029993 L35.3402431,52.0029993 L35.3402431,53.0057486 L13.7705694,53.0057486 Z M18.6638942,25.0067483 C19.206398,25.0067483 19.6449136,24.55986 19.6449136,24.0069983 C19.6449136,23.4551362 20.0844103,23.0072482 20.625933,23.0072482 C21.1674557,23.0072482 21.6069524,23.4551362 21.6069524,24.0069983 C21.6069524,24.55986 22.0454681,25.0067483 22.5879718,25.0067483 C23.1304756,25.0067483 23.5689913,24.55986 23.5689913,24.0069983 C23.5689913,23.4551362 24.008488,23.0072482 24.5500107,23.0072482 C25.0915334,23.0072482 25.5310301,23.4551362 25.5310301,24.0069983 C25.5310301,24.55986 25.9695457,25.0067483 26.5120495,25.0067483 C27.0545532,25.0067483 27.4930689,24.55986 27.4930689,24.0069983 C27.4930689,23.4551362 27.9325656,23.0072482 28.4740883,23.0072482 C29.015611,23.0072482 29.4551077,23.4551362 29.4551077,24.0069983 C29.4551077,24.55986 29.8936234,25.0067483 30.4361271,25.0067483 C30.9786308,25.0067483 31.4171465,24.55986 31.4171465,24.0069983 C31.4171465,23.4551362 31.8566432,23.0072482 32.3981659,23.0072482 C32.9033909,23.0072482 33.3046279,23.4021495 33.3585839,23.9020245 L28.511367,37.0787303 C27.6186394,35.8300425 26.182427,35.0082479 24.5529537,35.0082479 C22.9254425,35.0082479 21.4902111,35.828043 20.5965025,37.0747313 L15.7443805,23.888028 C15.8052037,23.3951512 16.2015355,23.0072482 16.7018554,23.0072482 C17.2433781,23.0072482 17.6828748,23.4551362 17.6828748,24.0069983 C17.6828748,24.55986 18.1213905,25.0067483 18.6638942,25.0067483 L18.6638942,25.0067483 Z M21.6059714,39.9950012 C21.6148006,38.3464134 22.9313286,37.0067483 24.5519727,37.0067483 C26.1726168,37.0067483 27.4891448,38.3464134 27.497974,39.9950012 C27.497974,39.9990002 27.4960119,40.0029993 27.4960119,40.0069983 L27.4960119,50.0034991 L21.6079335,50.0034991 L21.6079335,40.0069983 C21.6079335,40.0029993 21.6059714,39.9990002 21.6059714,39.9950012 L21.6059714,39.9950012 Z M35.8327149,44.9207698 C35.7993602,44.9407648 35.7797398,44.9727568 35.7503092,44.9947513 C35.689486,45.0397401 35.6345489,45.0847288 35.586479,45.1417146 C35.5492003,45.1867033 35.5217317,45.2336916 35.4923011,45.2836791 C35.4569844,45.3446638 35.4255918,45.4026493 35.4030284,45.4706323 C35.383408,45.5306173 35.3755598,45.5896026 35.3677117,45.6525869 C35.3608445,45.6985754 35.3412241,45.7385654 35.3412241,45.7865534 L35.3412241,50.0044989 L29.4580508,50.0044989 L29.4580508,40.1979505 L35.2862871,24.3549113 C35.3451482,24.1969508 35.3480913,24.0369908 35.3284709,23.88003 C35.2627426,22.2854286 33.9785882,21.0067483 32.3981659,21.0067483 C31.6418,21.0067483 30.9580294,21.3076731 30.4361271,21.7865534 C29.9142248,21.3076731 29.2304543,21.0067483 28.4740883,21.0067483 C27.7177223,21.0067483 27.0339518,21.3076731 26.5120495,21.7865534 C25.9901472,21.3076731 25.3063766,21.0067483 24.5500107,21.0067483 C23.7936447,21.0067483 23.1098742,21.3076731 22.5879718,21.7865534 C22.0660695,21.3076731 21.382299,21.0067483 20.625933,21.0067483 C19.8695671,21.0067483 19.1857965,21.3076731 18.6638942,21.7865534 C18.1419919,21.3076731 17.4582214,21.0067483 16.7018554,21.0067483 C15.1018128,21.0067483 13.8029431,22.3154211 13.7656643,23.9370157 C13.7646833,23.9510122 13.7617402,23.9630092 13.7617402,23.9770057 C13.7617402,23.9870032 13.7587972,23.9970007 13.7587972,24.0059985 C13.7587972,24.0709823 13.7833227,24.127968 13.7950949,24.1889528 C13.8058861,24.2449388 13.800981,24.299925 13.8206014,24.3549113 L13.8353167,24.3939015 C13.8353167,24.3949013 13.8362977,24.395901 13.8362977,24.395901 L19.6458946,40.187953 L19.6458946,50.0024994 L13.7715504,50.0024994 L13.7715504,45.8045489 C13.7715504,45.7335666 13.7460439,45.6705824 13.7323097,45.6035991 C13.7254425,45.5756061 13.7234805,45.5466133 13.7146513,45.5196201 C13.6862017,45.4216446 13.6430369,45.3366658 13.5880998,45.2546863 C13.5704415,45.2296926 13.5576882,45.2036991 13.5380678,45.1797051 C13.4762636,45.1037241 13.4056302,45.0437391 13.3261676,44.9897526 C13.3055662,44.9747563 13.292813,44.9527618 13.2692685,44.9387653 C6.29520154,40.8387903 1.96203881,33.1987003 1.96203881,25.0027493 C1.96203881,12.3179205 12.0881211,1.99950012 24.5343144,1.99950012 C36.9805076,1.99950012 47.1065899,12.3179205 47.1065899,25.0027493 C47.1065899,33.1837041 42.7861804,40.8147963 35.8327149,44.9207698 L35.8327149,44.9207698 Z" id="path-1"></path>
    </defs>
    <g id="7" stroke="none" stroke-width="1" fill="none" fill-rule="evenodd">
        <g id="Oval" transform="translate(8.000000, 0.000000)">
            <mask id="mask-2" fill="white">
                <use xlink:href="#path-1"></use>
            </mask>
            <use id="Mask" fill="#014E71" fill-rule="nonzero" xlink:href="#path-1"></use>
            <path d="M19.4492237,50.0034991 L31.0029687,50.0034991 C36.645434,36.557515 39.4666667,28.4230153 39.4666667,25.6 C39.4666667,17.3525477 32.7807856,10.6666667 24.5333333,10.6666667 C16.2858811,10.6666667 9.6,17.3525477 9.6,25.6 C9.6,31.0983015 12.8830746,39.2328012 19.4492237,50.0034991 Z" fill="#FA8603" fill-rule="nonzero" mask="url(#mask-2)"></path>
        </g>
        <rect id="Rectangle" x="0" y="0" width="64" height="64"></rect>
    </g>
</svg>