<?xml version="1.0" encoding="UTF-8"?>
<svg xmlns="http://www.w3.org/2000/svg" xmlns:xlink="http://www.w3.org/1999/xlink" id="Gradient" viewBox="0 0 512 512" width="512" height="512"><defs><linearGradient id="linear-gradient" x1="256" y1="448" x2="256" y2="64" gradientUnits="userSpaceOnUse"><stop offset="0" stop-color="#12c2e9"/><stop offset="0.5" stop-color="#c471ed"/><stop offset="1" stop-color="#f64f59"/></linearGradient></defs><path d="M472,80H454.624a24,24,0,0,0-45.248,0H374.624a24,24,0,0,0-45.248,0H294.624a24,24,0,0,0-45.248,0H214.624a24,24,0,0,0-45.248,0H142.624A24.039,24.039,0,0,0,120,64H88A24.028,24.028,0,0,0,64,88v8H40a24.028,24.028,0,0,0-24,24v64a24.028,24.028,0,0,0,24,24H64v32H40a24.028,24.028,0,0,0-24,24v64a24.028,24.028,0,0,0,24,24H64v8a24.028,24.028,0,0,0,24,24h32a24.039,24.039,0,0,0,22.624-16h26.752A24.039,24.039,0,0,0,192,384v18.165A16,16,0,0,0,184,416v16a16.019,16.019,0,0,0,16,16h64a16.019,16.019,0,0,0,16-16V416a16,16,0,0,0-8-13.835V384a24.039,24.039,0,0,0,22.624-16h34.752A24.039,24.039,0,0,0,352,384v18.165A16,16,0,0,0,344,416v16a16.019,16.019,0,0,0,16,16h64a16.019,16.019,0,0,0,16-16V416a16,16,0,0,0-8-13.835V384a24.039,24.039,0,0,0,22.624-16H472a24.028,24.028,0,0,0,24-24V104A24.028,24.028,0,0,0,472,80ZM376,352V96h32V352ZM328,96V352H296V96ZM216,352V96h32V352ZM168,96V352H144V96ZM40,192a8.009,8.009,0,0,1-8-8V120a8.009,8.009,0,0,1,8-8H64v80Zm0,144a8.009,8.009,0,0,1-8-8V264a8.009,8.009,0,0,1,8-8H64v80Zm88,24a8.009,8.009,0,0,1-8,8H88a8.009,8.009,0,0,1-8-8V88a8.009,8.009,0,0,1,8-8h32a8.009,8.009,0,0,1,8,8Zm56,0V88a8,8,0,0,1,16,0V360a8,8,0,0,1-16,0Zm80,72H200V416h64l.01,16Zm-8-32H208V377.869A24.076,24.076,0,0,0,214.624,368h34.752A24.076,24.076,0,0,0,256,377.869Zm24-40a8,8,0,0,1-16,0V88a8,8,0,0,1,16,0Zm64,0V88a8,8,0,0,1,16,0V360a8,8,0,0,1-16,0Zm80,72H360V416h64l.01,16Zm-8-32H368V377.869A24.076,24.076,0,0,0,374.624,368h34.752A24.076,24.076,0,0,0,416,377.869Zm24-40a8,8,0,0,1-16,0V88a8,8,0,0,1,16,0Zm40-16a8.009,8.009,0,0,1-8,8H456V96h16a8.009,8.009,0,0,1,8,8ZM112,120a8,8,0,1,1-8-8A8,8,0,0,1,112,120Zm0,48a8,8,0,1,1-8-8A8,8,0,0,1,112,168Zm0,160a8,8,0,1,1-8-8A8,8,0,0,1,112,328Z" style="fill:url(#linear-gradient)"/></svg>
